<?xml version="1.0" standalone="no"?>
<!DOCTYPE svg PUBLIC "-//W3C//DTD SVG 20010904//EN"
 "http://www.w3.org/TR/2001/REC-SVG-20010904/DTD/svg10.dtd">
<svg version="1.0" xmlns="http://www.w3.org/2000/svg"
 width="260.000000pt" height="260.000000pt" viewBox="0 0 260.000000 260.000000"
 preserveAspectRatio="xMidYMid meet">
<metadata>
Created by potrace 1.11, written by Peter Selinger 2001-2013
</metadata>
<g transform="translate(0.000000,260.000000) scale(0.100000,-0.100000)"
fill="#000000" stroke="none">
<path d="M0 1300 l0 -1300 1300 0 1300 0 0 1300 0 1300 -1300 0 -1300 0 0
-1300z m651 568 l61 -123 59 123 58 122 35 0 c20 0 36 -3 36 -6 0 -4 -34 -71
-75 -149 l-75 -143 0 -96 0 -96 -35 0 -35 0 0 90 0 90 -80 152 c-44 84 -80
153 -80 155 0 2 16 3 35 3 35 0 35 -1 96 -122z m572 6 c80 -40 124 -124 111
-211 -24 -162 -224 -230 -335 -113 -95 99 -61 280 61 329 39 15 128 13 163 -5z
m257 -124 c3 -79 10 -144 17 -156 12 -21 60 -44 90 -44 25 0 81 30 89 48 5 9
11 78 14 152 l5 135 33 3 32 3 0 -195 0 -196 -35 0 c-29 0 -35 4 -35 20 0 20
-1 20 -31 -2 -41 -31 -135 -32 -175 -2 -63 46 -69 64 -72 210 -2 74 -1 141 2
150 4 10 16 14 33 12 l28 -3 5 -135z m450 115 l0 -24 36 24 c20 14 50 25 66
25 27 0 29 -3 26 -32 -3 -29 -7 -33 -41 -39 -73 -12 -82 -31 -85 -184 l-4
-135 -34 0 -34 0 0 188 c0 104 3 192 7 195 3 4 19 7 35 7 23 0 28 -4 28 -25z"/>
<path d="M1056 1798 c-39 -39 -51 -91 -36 -149 22 -82 95 -118 166 -83 56 28
78 65 78 127 -2 88 -50 137 -135 137 -33 0 -47 -6 -73 -32z"/>
</g>
</svg>
